<svg width="202" height="207" viewBox="0 0 202 207" fill="none" xmlns="http://www.w3.org/2000/svg">
<path fill-rule="evenodd" clip-rule="evenodd" d="M104.53 101.7L158.27 10.0781L137.618 57.7606L137.66 167.388L137.639 170.337C137.7 171.739 138.437 172.512 140.263 172.449L196.754 172.7C199.368 172.622 200.89 173.809 201 176.632L200.935 196.834C200.863 198.529 201.383 200.913 197.352 200.682L111.226 200.765C106.967 200.769 104.506 200.077 104.507 194.922L104.53 101.7ZM85.6961 55.7861L109.761 55.8977C112.597 55.7267 114.035 54.1722 114.369 51.6592C114.811 44.081 114.61 36.7621 113.117 29.9647C107.917 6.22129 87.5247 0.680981 67.4392 0.991839H46.0107C20.6301 0.225443 4.24024 10.7519 1.12359 36.2413L1.06863 108.278C0.783775 128.922 1.0547 140.434 8.56134 150.432C21.7463 166.943 36.2977 164.878 54.7274 165.345L41.8201 194.981L39.3744 200.487L112.199 76.6693C112.877 75.4699 111.697 75.0692 109.644 74.9853L61.3599 74.9916C58.8243 75.1062 57.4318 76.3418 57.285 78.7978L57.3056 99.0845C56.8107 106.46 77.1287 101.281 80.4422 103.707C80.7521 103.929 80.9926 104.234 81.1249 104.867L81.1758 106.196L80.9753 125.039C80.2533 132.978 75.5898 136.147 68.7938 136.897C60.9971 136.812 53.3228 136.954 46.5329 136.989C35.995 137.043 33.1137 128.265 33.742 119.643C33.7492 93.5035 33.7562 67.3635 33.7634 41.2236C34.3254 32.1556 39.6332 30.017 47.6517 29.005L70.223 29.0885C80.2053 30.1291 80.4786 36.6204 81.1887 44.6898C81.0318 50.262 79.8694 53.8696 85.6961 55.7861Z" fill="white" stroke="#FEFEFE" stroke-width="0.755906" stroke-miterlimit="22.9256"/>
</svg>
