<svg width="35" height="36" viewBox="0 0 35 36" fill="none" xmlns="http://www.w3.org/2000/svg">
<g clip-path="url(#clip0_22_60)">
<path d="M1.45833 17.5664C1.45833 5.91068 5.83333 1.53979 17.5 1.53979C29.1667 1.53979 33.5417 5.91068 33.5417 17.5664C33.5417 29.2221 29.1667 33.5929 17.5 33.5929C5.83333 33.5929 1.45833 29.2221 1.45833 17.5664Z" fill="white"/>
<path d="M26.425 8.64966H8.575V26.4829H26.425V8.64966Z" fill="white"/>
<path opacity="0.05" d="M17.5 19.475L8.57501 26.483L8.12292 11.7385L17.5 19.475Z" fill="white"/>
<path opacity="0.15" d="M8.75 12.7584L21.0729 26.483H26.4687L26.8771 11.7385L17.1062 17.3624L8.75 12.7584Z" fill="url(#paint0_linear_22_60)"/>
<path d="M27.1688 8.64966H26.425L17.5 15.7159L8.57501 8.64966H7.83126C7.24067 8.65348 6.67536 8.88956 6.25775 9.30678C5.84013 9.724 5.60383 10.2888 5.60001 10.8788V24.2537C5.60383 24.8437 5.84013 25.4085 6.25775 25.8257C6.67536 26.243 7.24067 26.479 7.83126 26.4829H8.57501V12.598L17.5 19.4749L26.425 12.598V26.4829H27.1688C27.7593 26.479 28.3246 26.243 28.7423 25.8257C29.1599 25.4085 29.3962 24.8437 29.4 24.2537V10.8788C29.3962 10.2888 29.1599 9.724 28.7423 9.30678C28.3246 8.88956 27.7593 8.65348 27.1688 8.64966Z" fill="#FF0000"/>
</g>
<defs>
<linearGradient id="paint0_linear_22_60" x1="11.4333" y1="12.161" x2="27.3222" y2="20.9592" gradientUnits="userSpaceOnUse">
<stop offset="0.01" stop-color="white"/>
<stop offset="1" stop-color="white"/>
</linearGradient>
<clipPath id="clip0_22_60">
<rect width="35" height="34.9671" fill="white" transform="translate(0 0.0827637)"/>
</clipPath>
</defs>
</svg>
