<svg width="35" height="35" viewBox="0 0 35 35" fill="none" xmlns="http://www.w3.org/2000/svg">
<g clip-path="url(#clip0_22_40)">
<path d="M1.45833 17.4999C1.45833 5.83325 5.83333 1.45825 17.5 1.45825C29.1667 1.45825 33.5417 5.83325 33.5417 17.4999C33.5417 29.1666 29.1667 33.5416 17.5 33.5416C5.83333 33.5416 1.45833 29.1666 1.45833 17.4999Z" fill="white"/>
<path d="M16.45 17.0625V15.6042C16.45 15.1865 16.6159 14.7858 16.9113 14.4905C17.2067 14.1951 17.6073 14.0292 18.025 14.0292H20.3C20.7127 14.0292 21.109 13.8673 21.4035 13.5782C21.6981 13.2891 21.8674 12.896 21.875 12.4833V10.325C21.875 9.90728 21.7091 9.50668 21.4137 9.21131C21.1183 8.91594 20.7177 8.75 20.3 8.75H18.9583C17.4112 8.75 15.9275 9.36458 14.8335 10.4585C13.7396 11.5525 13.125 13.0362 13.125 14.5833V20.4167C13.125 21.9638 13.7396 23.4475 14.8335 24.5415C15.9275 25.6354 17.4112 26.25 18.9583 26.25H20.2563C20.4667 26.2558 20.6763 26.2194 20.8724 26.1429C21.0686 26.0664 21.2474 25.9513 21.3983 25.8045C21.5493 25.6576 21.6692 25.482 21.7511 25.288C21.8329 25.094 21.8751 24.8856 21.875 24.675V22.5167C21.875 22.099 21.7091 21.6983 21.4137 21.403C21.1183 21.1076 20.7177 20.9417 20.3 20.9417H18.025C17.6073 20.9417 17.2067 20.7757 16.9113 20.4804C16.6159 20.185 16.45 19.7844 16.45 19.3667V17.0625Z" fill="black"/>
</g>
<defs>
<clipPath id="clip0_22_40">
<rect width="35" height="35" fill="white"/>
</clipPath>
</defs>
</svg>
