<svg width="35" height="36" viewBox="0 0 35 36" fill="none" xmlns="http://www.w3.org/2000/svg">
<g clip-path="url(#clip0_5_1871)">
<path fill-rule="evenodd" clip-rule="evenodd" d="M35 17.8579C35 27.5138 27.165 35.3415 17.5 35.3415C7.83502 35.3415 0 27.5138 0 17.8579C0 8.20204 7.83502 0.37439 17.5 0.37439C27.165 0.37439 35 8.20204 35 17.8579ZM18.1271 13.2815C16.425 13.9888 13.0231 15.4528 7.92151 17.6734C7.09309 18.0025 6.65913 18.3245 6.61962 18.6393C6.55285 19.1714 7.21979 19.3809 8.12798 19.6662C8.25152 19.705 8.37952 19.7452 8.51074 19.7878C9.40426 20.078 10.6062 20.4175 11.231 20.431C11.7978 20.4432 12.4304 20.2098 13.1289 19.7306C17.8954 16.5161 20.356 14.8913 20.5105 14.8562C20.6194 14.8315 20.7705 14.8005 20.8728 14.8913C20.9751 14.9822 20.965 15.1543 20.9542 15.2004C20.8881 15.4818 18.2702 17.9135 16.9154 19.1718C16.493 19.5641 16.1934 19.8423 16.1322 19.9059C15.995 20.0482 15.8552 20.1829 15.7208 20.3123C14.8907 21.1118 14.2682 21.7113 15.7553 22.6904C16.4699 23.1608 17.0417 23.5499 17.6122 23.9381C18.2353 24.3619 18.8567 24.7847 19.6607 25.3113C19.8655 25.4454 20.0612 25.5847 20.2517 25.7205C20.9768 26.2369 21.6282 26.7008 22.4329 26.6268C22.9006 26.5839 23.3836 26.1446 23.6289 24.8344C24.2086 21.738 25.3482 15.0292 25.6116 12.2646C25.6346 12.0224 25.6056 11.7124 25.5823 11.5763C25.559 11.4403 25.5103 11.2464 25.3332 11.1029C25.1236 10.9329 24.7999 10.8971 24.6551 10.8996C23.9969 10.9112 22.9871 11.262 18.1271 13.2815Z" fill="white"/>
</g>
<defs>
<clipPath id="clip0_5_1871">
<rect width="35" height="34.9671" fill="white" transform="translate(0 0.37439)"/>
</clipPath>
</defs>
</svg>
